<?xml version="1.0" encoding="UTF-8" standalone="no"?>
<svg
   xmlns:dc="http://purl.org/dc/elements/1.1/"
   xmlns:cc="http://creativecommons.org/ns#"
   xmlns:rdf="http://www.w3.org/1999/02/22-rdf-syntax-ns#"
   xmlns:svg="http://www.w3.org/2000/svg"
   xmlns="http://www.w3.org/2000/svg"
   id="svg8"
   version="1.1"
   viewBox="0 0 71.759621 76.036842"
   height="76.036842mm"
   width="71.759621mm">
  <defs
     id="defs2" />
  <metadata
     id="metadata5">
    <rdf:RDF>
      <cc:Work
         rdf:about="">
        <dc:format>image/svg+xml</dc:format>
        <dc:type
           rdf:resource="http://purl.org/dc/dcmitype/StillImage" />
        <dc:title></dc:title>
      </cc:Work>
    </rdf:RDF>
  </metadata>
  <g
     transform="translate(-75.982712,-83.030737)"
     id="layer1">
    <path
       style="color:#000000;font-style:normal;font-variant:normal;font-weight:normal;font-stretch:normal;font-size:medium;line-height:normal;font-family:sans-serif;font-variant-ligatures:normal;font-variant-position:normal;font-variant-caps:normal;font-variant-numeric:normal;font-variant-alternates:normal;font-feature-settings:normal;text-indent:0;text-align:start;text-decoration:none;text-decoration-line:none;text-decoration-style:solid;text-decoration-color:#000000;letter-spacing:normal;word-spacing:normal;text-transform:none;writing-mode:lr-tb;direction:ltr;text-orientation:mixed;dominant-baseline:auto;baseline-shift:baseline;text-anchor:start;white-space:normal;shape-padding:0;clip-rule:nonzero;display:inline;overflow:visible;visibility:visible;opacity:1;isolation:auto;mix-blend-mode:normal;color-interpolation:sRGB;color-interpolation-filters:linearRGB;solid-color:#000000;solid-opacity:1;vector-effect:none;fill:#4080d0;fill-opacity:1;fill-rule:nonzero;stroke:none;stroke-width:5;stroke-linecap:round;stroke-linejoin:miter;stroke-miterlimit:4;stroke-dasharray:none;stroke-dashoffset:0;stroke-opacity:1;color-rendering:auto;image-rendering:auto;shape-rendering:auto;text-rendering:auto;enable-background:accumulate"
       d="m 110.4517,87.026616 c -0.78689,-0.01035 -1.57681,0.0067 -2.36833,0.05168 -1.8092,0.10275 -3.62628,0.350378 -5.4374,0.751892 -14.488908,3.212114 -25.23981,15.471292 -26.533262,30.255512 -1.293452,14.78422 7.166264,28.72326 20.877277,34.40255 13.711025,5.67929 29.548125,1.80436 39.087535,-9.56427 a 2.5009855,2.5009855 0 1 0 -3.83181,-3.21479 c -8.14985,9.71261 -21.62991,13.01172 -33.343695,8.15971 -5.25121,-2.17513 -9.591192,-5.76214 -12.686565,-10.19318 0.915938,-0.52892 2.012723,-1.16235 4.786271,-2.76365 6.630916,-3.82836 20.254449,-11.69326 47.212109,-27.25726 a 2.50025,2.50025 0 0 0 1.53789,-1.71255 2.50025,2.50025 0 0 0 -0.50592,-2.29134 C 133.11137,93.342165 122.10894,87.179914 110.4517,87.026616 Z m -0.92294,4.999178 c 9.5758,-0.164928 18.71392,4.430893 24.27552,12.402346 -24.82344,14.33171 -38.939954,22.48045 -45.302664,26.15396 -2.774128,1.60164 -3.87146,2.23529 -4.787305,2.76417 -2.112565,-4.51738 -3.077709,-9.60505 -2.621029,-14.82493 1.10504,-12.63067 10.256426,-23.064031 22.634798,-25.808249 1.93412,-0.428784 3.87626,-0.654152 5.80068,-0.687297 z"
       id="e" />
    <path
       style="color:#000000;font-style:normal;font-variant:normal;font-weight:normal;font-stretch:normal;font-size:medium;line-height:normal;font-family:sans-serif;font-variant-ligatures:normal;font-variant-position:normal;font-variant-caps:normal;font-variant-numeric:normal;font-variant-alternates:normal;font-feature-settings:normal;text-indent:0;text-align:start;text-decoration:none;text-decoration-line:none;text-decoration-style:solid;text-decoration-color:#000000;letter-spacing:normal;word-spacing:normal;text-transform:none;writing-mode:lr-tb;direction:ltr;text-orientation:mixed;dominant-baseline:auto;baseline-shift:baseline;text-anchor:start;white-space:normal;shape-padding:0;clip-rule:nonzero;display:inline;overflow:visible;visibility:visible;opacity:1;isolation:auto;mix-blend-mode:normal;color-interpolation:sRGB;color-interpolation-filters:linearRGB;solid-color:#000000;solid-opacity:1;vector-effect:none;fill:#4080d0;fill-opacity:1;fill-rule:nonzero;stroke:none;stroke-width:2.16776919;stroke-linecap:round;stroke-linejoin:miter;stroke-miterlimit:4;stroke-dasharray:none;stroke-dashoffset:0;stroke-opacity:1;color-rendering:auto;image-rendering:auto;shape-rendering:auto;text-rendering:auto;enable-background:accumulate"
       d="m 110.42586,83.030995 c -6.43562,-0.02409 -12.936646,1.635475 -18.833994,5.095813 a 1.083993,1.083993 0 1 0 1.097608,1.869136 c 14.824156,-8.69825 33.622536,-5.333051 44.630866,8.000028 11.00834,13.333078 11.00834,32.774698 0,46.107778 -10.06189,12.18678 -26.63141,16.045 -40.726195,9.97665 l 1.913578,-0.49712 -5.89318,-1.51877 a 1.083993,1.083993 0 0 0 -0.455786,-0.11731 l -3.372921,-0.8692 2.434993,2.5523 a 1.083993,1.083993 0 0 0 0.256316,0.2682 l 4.257621,4.46226 -0.698666,-2.60087 c 15.10839,6.87118 33.12539,2.84244 43.95597,-10.27534 11.66702,-14.13087 11.66702,-34.73643 0,-48.867305 -7.29189,-8.831793 -17.84017,-13.546098 -28.56621,-13.58625 z"
       id="c" />
  </g>
</svg>
